<!DOCTYPE svg PUBLIC "-//W3C//DTD SVG 20010904//EN" "http://www.w3.org/TR/2001/REC-SVG-20010904/DTD/svg10.dtd">
<svg version="1.0" xmlns="http://www.w3.org/2000/svg" width="1600px" height="1391px" viewBox="0 0 16000 13910" preserveAspectRatio="xMidYMid meet">
<g id="layer1" fill="#0f1d41" stroke="none">
 <path d="M2647 11273 c3 -10 9 -22 14 -28 4 -5 12 -26 17 -45 11 -36 45 -123 86 -220 29 -66 56 -133 91 -220 78 -192 122 -296 141 -334 8 -16 14 -33 14 -38 0 -5 13 -36 29 -71 15 -34 41 -91 56 -127 15 -36 41 -93 56 -126 16 -34 29 -65 29 -68 0 -4 11 -31 24 -59 13 -29 52 -115 86 -192 35 -77 81 -178 103 -225 21 -47 47 -103 57 -125 168 -369 421 -885 589 -1205 34 -63 71 -135 83 -160 11 -25 58 -112 103 -195 45 -82 96 -175 112 -205 17 -30 61 -109 98 -175 37 -66 77 -138 90 -160 39 -71 67 -119 84 -145 9 -14 23 -36 29 -50 7 -14 28 -50 47 -80 19 -30 40 -66 47 -80 7 -14 25 -44 40 -67 15 -23 28 -44 28 -48 0 -3 8 -18 19 -33 10 -15 31 -49 47 -76 16 -27 39 -65 52 -85 12 -20 31 -52 43 -71 11 -19 38 -62 59 -95 21 -33 58 -91 81 -130 24 -38 50 -79 59 -90 9 -11 34 -49 55 -85 21 -36 48 -77 59 -91 17 -22 67 -96 131 -198 54 -84 86 -129 99 -140 9 -7 16 -19 16 -25 1 -12 35 -56 44 -56 11 0 6 25 -18 85 -40 99 -82 261 -113 425 -28 154 -28 158 -27 545 1 341 3 411 22 555 12 91 25 177 28 192 5 27 6 27 32 10 14 -9 36 -26 47 -37 42 -40 319 -269 439 -363 62 -49 190 -153 216 -175 8 -7 42 -33 75 -57 57 -42 112 -85 145 -113 21 -19 168 -129 195 -147 12 -8 66 -49 121 -90 54 -41 106 -79 115 -85 23 -15 134 -95 179 -130 33 -26 141 -103 205 -145 12 -8 48 -33 80 -55 31 -22 67 -47 79 -55 13 -8 129 -86 259 -172 130 -87 240 -158 245 -158 5 0 15 -7 22 -15 6 -7 37 -29 67 -47 31 -18 66 -40 78 -48 12 -8 46 -29 76 -47 30 -17 59 -36 64 -40 6 -5 37 -24 70 -43 33 -19 67 -39 76 -45 9 -5 41 -24 70 -42 30 -18 63 -39 74 -48 10 -8 22 -15 26 -15 4 0 47 -24 96 -53 133 -79 144 -85 203 -118 30 -16 73 -40 95 -52 259 -148 803 -428 1110 -571 55 -26 123 -58 150 -71 59 -27 103 -47 245 -109 58 -26 116 -53 130 -60 14 -7 43 -19 65 -26 22 -7 45 -16 50 -20 6 -4 57 -27 115 -50 58 -23 135 -55 171 -71 36 -16 71 -29 77 -29 6 0 35 -11 64 -24 56 -25 162 -66 288 -111 41 -15 98 -36 125 -47 28 -11 70 -26 95 -33 25 -7 63 -21 85 -30 22 -10 60 -23 85 -30 43 -12 97 -30 240 -80 100 -35 380 -121 550 -169 52 -15 126 -37 164 -48 38 -11 119 -33 180 -48 61 -16 165 -43 231 -60 66 -17 140 -35 165 -40 25 -4 90 -19 145 -33 177 -44 299 -71 350 -78 28 -3 102 -18 165 -31 194 -42 677 -126 860 -148 52 -7 100 -14 107 -17 7 -3 13 2 13 11 0 9 -8 16 -17 16 -20 0 -347 107 -523 170 -63 23 -124 44 -135 47 -11 3 -56 19 -100 36 -44 16 -107 40 -140 53 -151 57 -233 88 -265 102 -19 9 -62 25 -95 37 -63 24 -122 46 -295 114 -58 23 -123 48 -145 56 -22 8 -58 23 -80 35 -21 11 -45 20 -53 20 -7 0 -30 9 -50 20 -20 10 -57 28 -82 39 -25 10 -84 38 -132 60 -48 23 -89 41 -92 41 -2 0 -53 23 -113 51 -116 54 -162 76 -288 134 -44 20 -107 50 -140 65 -33 16 -114 55 -180 86 -66 31 -129 61 -140 67 -11 6 -60 30 -110 55 -49 24 -97 47 -106 52 -9 5 -121 62 -250 128 -129 66 -277 143 -329 171 -52 28 -117 63 -145 77 -57 29 -149 79 -217 117 -69 39 -212 118 -300 166 -26 14 -71 40 -100 57 -130 75 -221 127 -273 155 -22 12 -51 29 -65 39 -44 30 -230 140 -237 140 -3 0 -21 11 -39 25 -18 14 -36 25 -39 25 -4 0 -27 14 -52 30 -24 17 -46 30 -49 30 -3 0 -24 13 -47 28 -23 16 -49 32 -57 35 -8 4 -46 27 -85 52 -38 25 -76 48 -84 52 -8 4 -50 30 -94 60 -43 29 -81 53 -83 53 -2 0 -61 37 -132 83 -158 101 -146 93 -223 144 -35 23 -109 71 -164 107 -55 36 -104 69 -110 74 -5 4 -48 33 -95 64 -90 61 -285 194 -360 247 -25 17 -82 57 -128 88 -45 31 -87 62 -93 70 -6 7 -17 13 -24 13 -7 0 -18 7 -25 15 -7 8 -47 38 -89 67 -42 28 -78 54 -81 58 -4 5 -82 62 -193 140 -22 16 -234 173 -252 187 -24 19 -170 130 -195 148 -48 35 -221 169 -331 256 -58 46 -120 95 -138 109 -36 27 -186 148 -296 239 -38 31 -135 110 -215 176 -80 65 -154 126 -165 136 -11 10 -33 30 -50 44 -16 14 -41 36 -55 48 -14 12 -70 60 -125 107 -55 47 -102 87 -105 91 -3 3 -39 34 -80 69 -41 35 -85 73 -97 84 -13 12 -33 30 -45 42 -13 12 -86 77 -163 144 -128 113 -181 162 -285 260 -20 19 -87 82 -150 140 -273 254 -381 359 -815 794 -417 418 -602 608 -757 780 -29 33 -65 71 -79 86 -44 43 -279 323 -279 332 0 4 -16 8 -35 8 -28 0 -33 -3 -28 -17z"/>
 </g>
<g id="layer2" fill="#000000" stroke="none">
 <path d="M7410 13884 c-15 -38 -12 -53 15 -80 20 -20 31 -23 63 -18 36 6 40 4 64 -33 14 -21 31 -60 38 -86 14 -54 7 -90 -36 -185 -13 -29 -24 -59 -24 -66 0 -7 -11 -38 -24 -67 -13 -30 -35 -88 -49 -128 -27 -78 -38 -91 -74 -91 -20 0 -23 -5 -23 -35 l0 -35 144 0 c154 0 175 7 161 50 -5 16 -15 20 -46 20 -35 0 -39 3 -39 24 0 13 14 62 31 108 17 45 37 102 46 126 15 42 33 56 33 26 0 -9 13 -46 28 -82 16 -37 35 -93 42 -125 15 -64 9 -77 -37 -77 -24 0 -48 -33 -39 -56 4 -11 32 -14 135 -14 130 0 131 0 137 24 8 32 -2 46 -31 46 -41 0 -54 11 -66 53 -6 22 -22 63 -35 91 -13 27 -24 56 -24 63 0 7 -9 32 -19 56 -11 23 -29 68 -40 100 -12 31 -30 83 -42 115 -11 31 -28 75 -38 97 -10 22 -21 52 -24 66 -4 14 -18 42 -32 63 -14 20 -25 41 -25 46 0 18 -40 30 -100 30 -56 0 -61 -2 -70 -26z"/>
 <path d="M11439 13603 c-26 -65 -132 -284 -194 -400 -34 -65 -42 -73 -67 -73 -32 0 -43 -18 -34 -55 l6 -25 140 0 c82 0 141 4 145 10 4 7 12 7 25 0 10 -5 85 -10 165 -10 l146 0 -3 38 c-3 35 -5 37 -41 40 -43 4 -56 22 -38 55 6 12 18 42 25 67 35 107 55 155 67 155 7 0 22 -27 34 -60 12 -33 30 -75 40 -94 43 -84 38 -121 -16 -121 -35 0 -55 -30 -39 -60 10 -18 21 -20 125 -20 62 0 120 3 129 6 10 4 16 18 16 39 0 31 -3 34 -32 37 -29 3 -37 11 -70 73 -21 39 -38 76 -38 82 0 7 -13 41 -30 75 -16 34 -30 66 -30 70 0 5 -20 52 -45 104 -42 88 -47 94 -75 94 -20 0 -33 -6 -36 -17 -3 -10 -18 -47 -34 -83 -16 -36 -30 -74 -32 -84 -6 -36 -24 -26 -49 26 -74 154 -77 158 -115 158 -28 0 -36 -5 -45 -27z m118 -239 l33 -65 -25 -59 c-14 -33 -25 -66 -25 -74 0 -9 -10 -21 -22 -27 -23 -12 -134 -16 -145 -5 -4 3 7 34 25 69 17 34 45 94 63 132 35 74 47 95 58 95 3 0 21 -30 38 -66z"/>
 <path d="M5350 13609 c-19 -6 -39 -15 -44 -20 -6 -5 -17 -9 -26 -9 -22 0 -81 -64 -116 -125 -25 -43 -29 -61 -29 -125 0 -63 5 -84 29 -132 55 -109 139 -158 272 -158 128 0 217 56 271 169 33 70 32 175 -4 244 -34 65 -74 104 -140 134 -59 27 -161 38 -213 22z m132 -83 c43 -18 86 -70 94 -113 3 -18 5 -68 3 -112 -4 -70 -8 -84 -35 -122 -56 -77 -153 -83 -215 -15 -58 65 -62 258 -6 322 42 49 101 64 159 40z"/>
 <path d="M7015 13597 c-95 -46 -140 -126 -139 -247 0 -188 120 -312 287 -297 70 6 112 24 147 64 36 42 50 74 50 121 l0 42 -176 0 -177 0 6 61 c8 71 38 118 95 145 69 33 135 17 209 -50 18 -16 34 -28 36 -25 3 2 7 24 11 48 6 40 4 45 -28 76 -58 55 -113 78 -196 82 -64 3 -82 1 -125 -20z m200 -409 c4 -4 -1 -18 -12 -32 -15 -21 -27 -25 -64 -26 -37 0 -50 5 -72 28 -15 15 -27 32 -27 36 0 10 165 4 175 -6z"/>
 <path d="M11020 13609 c-14 -5 -33 -20 -42 -32 l-17 -22 -56 28 c-72 35 -164 38 -194 6 -46 -49 -27 -141 43 -204 66 -59 68 -61 141 -94 l68 -31 -5 -50 c-6 -61 -21 -80 -63 -80 -40 0 -65 26 -85 88 -20 61 -65 90 -107 70 -36 -17 -40 -51 -11 -104 36 -64 69 -97 128 -126 107 -54 212 -29 259 59 7 14 11 86 11 202 0 172 6 205 28 166 4 -9 21 -17 38 -18 25 -2 29 2 32 26 5 38 -40 102 -80 116 -37 13 -55 13 -88 0z m-119 -114 c22 -14 44 -37 49 -51 12 -31 13 -94 2 -94 -5 0 -36 25 -70 56 -63 57 -75 85 -44 103 22 13 17 15 63 -14z"/>
 <path d="M4499 13586 c-46 -32 -49 -47 -49 -257 l0 -168 -37 -3 c-35 -3 -38 -6 -41 -35 -3 -25 1 -33 20 -38 37 -11 78 -56 104 -112 22 -47 28 -53 54 -53 l30 0 0 70 0 70 85 0 c50 0 85 4 85 10 0 6 11 10 24 10 30 0 76 -51 102 -113 17 -42 22 -47 52 -47 l32 0 0 70 0 70 85 0 85 0 0 45 0 45 -47 0 c-27 0 -65 3 -85 6 l-38 7 0 167 c0 188 3 197 62 185 18 -4 41 -14 50 -22 27 -24 58 -8 58 32 0 28 -6 37 -37 55 -51 31 -157 39 -201 16 -56 -29 -62 -55 -62 -255 l0 -179 -83 -7 c-45 -4 -102 -3 -126 2 l-44 8 1 157 c1 185 6 203 60 193 21 -4 45 -13 54 -22 21 -19 55 -9 63 18 10 31 -17 62 -71 82 -72 25 -141 23 -185 -7z"/>
 <path d="M8040 13593 c-25 -8 -46 -17 -48 -18 -8 -7 -22 -151 -16 -167 3 -12 15 -18 33 -18 23 0 32 8 54 48 37 68 61 87 112 87 23 0 49 -6 58 -14 24 -19 21 -58 -7 -86 -25 -25 -105 -68 -146 -78 -36 -9 -86 -61 -100 -103 -43 -130 90 -238 252 -205 83 18 90 25 96 114 l5 77 -35 0 c-30 0 -36 -4 -52 -41 -22 -50 -72 -78 -114 -63 -41 14 -42 54 -2 88 17 14 39 26 47 26 31 0 125 63 154 103 24 33 29 50 29 97 0 47 -5 63 -27 93 -55 71 -185 98 -293 60z"/>
 <path d="M8783 13601 c-64 -28 -56 -146 14 -213 51 -50 87 -75 151 -103 66 -30 69 -36 56 -104 -13 -65 -89 -76 -125 -17 -10 17 -19 41 -19 54 0 30 -46 72 -80 72 -29 0 -60 -27 -60 -51 0 -9 7 -24 15 -35 8 -10 15 -26 15 -34 1 -24 67 -89 117 -116 51 -27 147 -33 186 -13 33 18 65 52 77 83 5 15 10 103 10 197 0 96 4 169 9 169 5 0 11 -4 13 -10 2 -5 17 -12 35 -16 28 -6 33 -3 38 19 8 31 -34 99 -71 116 -48 21 -117 9 -137 -25 -11 -19 -26 -18 -76 7 -49 23 -135 34 -168 20z m174 -116 c31 -19 43 -32 43 -49 0 -13 3 -38 6 -55 10 -47 -15 -40 -80 24 -58 57 -65 72 -44 93 17 17 26 15 75 -13z"/>
 <path d="M9393 13595 c-61 -26 -68 -49 -71 -252 l-4 -183 -29 0 c-33 0 -44 -18 -35 -55 4 -15 13 -25 25 -25 21 0 91 -73 91 -95 0 -8 5 -26 12 -40 9 -19 19 -25 45 -25 l33 0 0 70 0 70 85 0 85 0 0 29 c0 48 -9 61 -45 61 -18 0 -53 3 -79 6 l-46 7 0 161 c0 123 3 167 14 181 14 19 15 19 69 -3 61 -25 97 -19 97 17 0 63 -161 114 -247 76z"/>
 <path d="M3568 13593 l-108 -4 0 -28 c0 -34 14 -41 76 -41 58 0 67 -13 136 -210 10 -30 26 -69 34 -87 8 -18 25 -63 38 -100 25 -73 34 -98 77 -213 15 -41 36 -96 45 -122 16 -46 18 -48 55 -48 36 0 39 3 63 54 14 30 26 60 26 66 0 6 12 37 26 68 15 31 30 71 35 87 4 17 30 89 58 160 28 72 51 134 51 140 0 5 17 51 37 101 l37 92 45 9 c45 8 46 9 49 47 l3 39 -137 -6 c-75 -4 -159 -7 -186 -7 l-49 0 3 -32 c3 -32 4 -33 57 -36 49 -3 53 -5 48 -25 -10 -43 -36 -123 -60 -187 l-25 -65 -99 -3 c-72 -2 -103 1 -110 10 -6 7 -23 51 -38 98 -15 47 -33 102 -41 123 -8 20 -14 40 -14 42 0 3 20 5 44 5 65 0 76 7 76 46 l0 34 -72 -2 c-40 -1 -121 -4 -180 -5z m396 -450 c-9 -38 -68 -173 -75 -173 -4 0 -9 8 -12 18 -3 9 -17 49 -31 87 -14 39 -26 76 -26 83 0 8 22 12 75 12 l75 0 -6 -27z"/>
 <path d="M6186 13585 c-6 -17 3 -47 18 -57 6 -4 23 -8 37 -8 22 0 28 -6 33 -31 8 -40 8 -139 0 -206 -6 -48 -9 -53 -40 -63 -19 -7 -34 -17 -34 -23 0 -8 -26 -12 -82 -12 l-81 0 -20 35 c-20 36 -23 69 -19 206 l2 82 70 7 c56 6 70 11 75 26 14 44 -6 49 -202 49 l-184 0 3 -32 c2 -27 8 -34 28 -36 76 -8 71 3 68 -149 l-3 -137 -42 -9 c-35 -7 -43 -12 -43 -30 0 -32 11 -44 52 -61 45 -19 88 -58 88 -80 0 -12 9 -16 34 -16 30 0 35 4 41 30 7 30 19 38 30 20 11 -19 84 -50 115 -50 36 0 68 29 77 70 5 26 9 29 32 24 28 -7 70 -45 90 -82 10 -18 19 -22 44 -20 27 2 33 8 35 31 4 31 13 31 82 -1 60 -27 129 -27 179 0 81 43 83 51 89 267 l5 191 31 0 c44 0 58 12 54 46 l-3 29 -155 0 c-154 0 -155 0 -158 -23 -5 -34 15 -52 59 -52 l39 0 0 -155 c0 -143 -2 -157 -20 -175 -44 -44 -74 -46 -157 -9 l-43 19 0 160 0 160 24 0 c50 0 76 17 76 50 l0 30 -159 0 c-132 0 -160 -3 -165 -15z"/>
 <path d="M9922 13557 c3 -31 5 -32 55 -38 91 -11 83 22 83 -348 l0 -329 -50 -11 c-28 -6 -58 -11 -65 -11 -10 0 -15 -11 -15 -35 l0 -35 221 0 222 0 -7 31 c-3 17 -6 35 -6 40 0 5 -22 9 -49 9 -27 0 -61 4 -75 10 l-26 10 0 329 0 329 30 5 c16 4 74 4 127 0 75 -4 105 -11 128 -26 41 -28 88 -85 100 -122 8 -25 16 -30 48 -33 42 -4 41 -7 22 73 -8 33 -15 78 -15 100 0 22 -3 50 -6 61 -6 21 -7 22 -365 22 l-360 1 3 -32z"/>
 <path d="M13096 12784 c-9 -8 -16 -25 -16 -36 0 -20 36 -57 57 -58 14 0 53 -65 53 -89 0 -11 -21 -32 -52 -52 -74 -48 -86 -106 -32 -164 19 -21 32 -25 75 -25 48 0 55 3 95 44 l44 43 0 90 c0 83 -2 93 -30 135 -32 48 -72 83 -127 112 -40 20 -48 20 -67 0z"/>
 <path d="M3502 12264 c-166 -167 -309 -304 -317 -304 -13 0 -15 32 -9 243 3 133 7 247 9 253 2 6 33 15 69 19 l66 7 0 33 0 33 -180 0 -180 0 0 -34 0 -33 57 -3 57 -3 9 -40 c4 -22 7 -160 5 -307 -4 -313 -3 -312 -101 -336 -53 -13 -57 -16 -57 -43 l0 -29 149 0 149 0 42 38 c46 40 76 71 253 251 65 67 120 121 123 121 3 0 39 34 80 76 42 42 78 74 81 71 5 -6 -15 -443 -22 -463 -2 -6 -21 -15 -42 -18 -68 -12 -73 -16 -73 -47 0 -28 1 -29 53 -29 30 0 102 -3 161 -7 l108 -6 -4 34 c-3 30 -8 35 -52 50 -26 10 -51 20 -54 24 -3 3 0 139 6 303 7 163 12 332 12 375 l0 77 -47 -1 -48 -1 -303 -304z"/>
 <path d="M7272 12520 c-12 -28 -22 -54 -22 -59 0 -5 -13 -36 -29 -68 -16 -32 -41 -87 -56 -123 -15 -36 -40 -94 -55 -130 -15 -36 -40 -94 -55 -130 -15 -36 -41 -93 -56 -126 -16 -34 -29 -66 -29 -72 0 -6 -14 -22 -31 -36 -22 -19 -30 -33 -27 -52 l3 -26 150 0 c129 0 150 2 153 16 2 8 -8 27 -23 42 -24 24 -25 29 -15 62 13 40 60 157 96 237 25 57 74 170 100 233 9 24 21 45 25 47 3 3 25 -34 48 -80 41 -85 41 -86 27 -129 -15 -43 -34 -89 -87 -204 -16 -34 -29 -68 -29 -76 0 -23 -42 -68 -77 -82 -25 -11 -33 -20 -33 -39 l0 -25 138 0 c75 0 153 -3 173 -6 32 -5 37 -3 42 17 8 29 -8 49 -39 49 -30 0 -31 18 -4 70 11 22 20 47 20 57 0 10 7 27 15 37 15 20 15 20 30 0 8 -10 15 -25 15 -32 0 -7 11 -33 25 -58 14 -25 25 -47 25 -50 0 -3 -16 -12 -35 -20 -29 -12 -35 -19 -35 -45 l0 -32 46 7 c26 3 84 6 130 6 83 0 84 0 84 25 0 21 -9 29 -53 49 -52 23 -53 24 -115 148 l-63 125 22 49 c12 27 35 77 50 111 16 35 29 70 29 79 0 33 33 8 48 -36 8 -25 25 -67 37 -95 12 -27 25 -63 29 -78 4 -16 18 -52 31 -80 14 -28 25 -56 25 -63 0 -7 11 -36 25 -66 32 -68 32 -96 3 -100 -18 -2 -24 -11 -26 -35 l-3 -33 100 0 101 0 0 30 c0 17 -4 30 -8 30 -24 0 -55 45 -81 116 -31 83 -67 175 -93 234 -44 102 -78 186 -78 193 0 5 -13 38 -30 74 -16 35 -30 68 -30 73 0 5 -11 34 -24 65 -24 54 -26 55 -65 55 -35 0 -43 -4 -56 -30 -8 -16 -15 -35 -15 -42 0 -7 -13 -39 -29 -73 -16 -33 -39 -82 -51 -110 l-22 -49 -25 39 c-13 22 -35 63 -49 90 -13 28 -31 61 -38 75 -8 14 -21 42 -30 63 -15 35 -18 37 -59 37 -42 0 -44 -1 -65 -50z"/>
 <path d="M8760 12556 c-101 -31 -124 -41 -152 -68 -17 -15 -34 -28 -39 -28 -4 0 -27 -27 -49 -60 -58 -85 -89 -219 -73 -317 17 -103 28 -138 62 -192 47 -72 106 -126 178 -160 96 -47 139 -54 280 -49 111 4 137 8 198 33 39 15 73 33 77 39 4 6 8 53 8 104 0 87 -1 92 -21 92 -19 0 -46 -24 -117 -107 -15 -17 -52 -42 -82 -55 -191 -81 -361 76 -364 337 -3 231 127 383 308 361 88 -11 97 -24 103 -142 l6 -101 -62 -22 c-55 -21 -61 -26 -61 -51 0 -15 6 -30 13 -32 6 -2 94 -2 195 0 l182 4 0 23 c0 28 -18 47 -59 65 l-31 12 0 128 c0 90 -4 130 -12 137 -7 5 -47 20 -88 32 -95 30 -328 39 -400 17z"/>
 <path d="M10605 12560 c-67 -13 -136 -40 -176 -70 -53 -41 -119 -109 -119 -125 0 -8 -3 -15 -7 -15 -5 0 -17 -21 -28 -48 -17 -39 -20 -69 -20 -182 0 -133 1 -136 33 -202 41 -82 118 -156 211 -201 66 -32 67 -32 221 -32 l155 0 78 39 c43 22 83 48 88 58 5 10 16 18 25 18 8 0 18 8 21 18 4 9 19 33 33 52 77 100 97 273 47 401 -52 136 -137 220 -269 265 -82 28 -213 39 -293 24z m183 -87 c121 -38 177 -148 177 -343 -1 -189 -55 -302 -167 -350 -40 -17 -65 -21 -110 -18 -81 6 -131 42 -176 130 l-35 67 0 143 c0 140 1 145 33 223 37 88 68 121 139 147 58 22 72 22 139 1z"/>
 <path d="M11560 12561 c-50 -16 -116 -54 -138 -80 -56 -65 -56 -64 -62 -384 -6 -338 -3 -327 -87 -327 l-43 0 0 -38 0 -38 225 1 226 0 -3 35 c-3 34 -4 35 -53 38 -27 2 -56 8 -63 15 -12 9 -14 58 -10 277 4 248 6 268 27 317 28 64 42 76 110 98 108 35 244 -12 289 -101 18 -34 23 -180 14 -383 -8 -185 -9 -195 -31 -212 -15 -12 -39 -19 -67 -19 -43 0 -44 0 -44 -34 l0 -35 163 3 162 3 3 31 c3 29 1 31 -35 37 -79 14 -72 -17 -70 308 2 273 1 295 -18 337 -19 42 -79 109 -99 110 -5 0 -30 10 -55 23 -40 19 -64 22 -181 24 -74 1 -146 -2 -160 -6z"/>
 <path d="M14609 12538 c-22 -25 -29 -42 -29 -73 0 -31 7 -48 29 -73 34 -36 73 -42 121 -17 37 19 50 43 50 95 0 93 -108 136 -171 68z"/>
 <path d="M15256 12560 c-72 -13 -162 -49 -191 -76 -14 -13 -29 -24 -33 -24 -16 0 -82 -90 -109 -147 -25 -53 -27 -69 -28 -178 0 -110 2 -126 29 -193 37 -92 121 -179 216 -225 63 -31 70 -32 221 -35 165 -4 267 8 286 34 13 17 43 144 43 180 0 21 -5 24 -36 24 -31 0 -43 -8 -82 -52 -87 -96 -218 -134 -304 -88 -64 34 -104 87 -134 176 -24 74 -26 92 -22 195 4 93 10 125 31 174 43 102 119 155 223 155 45 0 117 -22 139 -42 70 -66 102 -98 111 -114 7 -13 25 -20 53 -22 47 -4 48 0 30 76 -24 101 -40 142 -58 142 -10 0 -21 3 -25 7 -29 30 -262 51 -360 33z"/>
 <path d="M15829 12538 c-45 -50 -36 -120 21 -165 26 -21 80 -15 117 13 30 23 33 30 33 79 0 47 -3 56 -31 79 -46 39 -101 36 -140 -6z"/>
 <path d="M5890 12547 c-63 -4 -226 -6 -362 -3 -243 5 -248 4 -248 -15 0 -43 17 -57 78 -64 l59 -7 6 -297 c3 -164 2 -313 -2 -330 -5 -28 -14 -36 -61 -56 -48 -20 -55 -27 -58 -54 -2 -17 0 -31 5 -31 123 -6 437 0 445 8 6 6 8 22 4 35 -5 20 -16 27 -63 39 l-58 14 -6 334 c-3 184 -4 337 -2 340 3 3 62 4 132 4 107 -2 134 -5 168 -23 49 -24 89 -70 98 -111 6 -28 10 -30 51 -30 32 0 44 4 44 15 0 40 -23 221 -28 226 -13 12 -89 15 -202 6z"/>
 <path d="M9725 12552 c-3 -3 -88 -6 -188 -7 -160 0 -182 -2 -185 -16 -5 -26 23 -46 73 -53 l45 -7 0 -132 c0 -73 3 -222 6 -332 3 -120 2 -205 -4 -214 -5 -7 -30 -16 -56 -18 -39 -5 -47 -10 -52 -30 -11 -41 8 -48 134 -49 64 0 167 -4 228 -8 127 -9 206 3 269 40 149 87 165 269 33 360 -26 18 -52 34 -58 36 -12 4 1 32 60 123 22 33 60 94 85 136 40 68 51 79 95 97 43 18 50 25 50 49 l0 28 -147 -2 -148 -2 -92 -183 c-51 -101 -102 -191 -114 -200 -12 -10 -38 -18 -60 -18 l-38 0 2 152 2 152 40 7 c77 14 95 25 95 62 0 31 -2 33 -34 34 -19 1 -37 -2 -41 -5z m102 -502 c59 -35 79 -116 49 -200 -16 -46 -80 -80 -152 -80 l-51 0 -6 98 c-4 53 -7 121 -7 150 l0 52 68 0 c49 0 76 -5 99 -20z"/>
 <path d="M12260 12527 c0 -31 4 -36 43 -51 23 -9 48 -16 54 -16 6 0 13 -10 17 -22 9 -35 -14 -618 -25 -639 -5 -10 -28 -23 -52 -29 -23 -6 -48 -13 -54 -15 -14 -5 -18 -65 -5 -65 4 0 132 -1 285 -1 l279 0 58 28 c101 49 145 136 133 262 -10 109 -98 196 -211 207 -68 7 -142 -1 -165 -19 -8 -7 -18 -29 -22 -51 l-6 -38 32 4 c46 7 104 -10 129 -37 17 -18 23 -40 27 -87 6 -76 -11 -133 -48 -161 -29 -21 -103 -33 -143 -23 l-26 6 0 339 0 339 43 7 c99 15 97 14 97 51 l0 34 -162 -2 c-90 -2 -189 1 -220 5 l-58 8 0 -34z"/>
 <path d="M13730 12527 c0 -32 3 -35 55 -53 43 -14 57 -24 62 -43 8 -34 -16 -634 -26 -644 -5 -5 -30 -14 -57 -21 -46 -12 -49 -14 -49 -45 l0 -32 272 0 c149 0 284 3 300 7 115 28 188 123 186 244 -2 106 -45 178 -135 227 -41 22 -186 25 -235 4 -29 -12 -33 -18 -33 -53 0 -38 2 -40 25 -35 14 2 45 0 69 -5 59 -12 89 -53 94 -132 9 -113 -56 -181 -164 -174 l-49 3 -3 335 c-3 372 -5 360 64 360 52 0 64 9 64 46 l0 34 -162 -3 c-90 -1 -189 2 -220 6 l-58 8 0 -34z"/>
 <path d="M0 12516 c0 -33 2 -34 50 -46 48 -11 52 -15 76 -69 15 -31 34 -78 44 -106 10 -27 32 -88 50 -135 18 -47 43 -112 55 -145 13 -33 39 -103 60 -155 20 -52 43 -111 50 -130 12 -31 17 -35 54 -38 37 -3 42 0 52 25 6 15 24 57 39 93 15 36 39 92 53 125 14 33 39 92 56 131 17 39 31 76 31 82 0 6 11 35 24 64 13 29 42 96 63 148 40 95 40 95 84 106 41 10 44 13 47 48 3 35 1 37 -18 31 -12 -4 -107 -7 -211 -6 l-189 0 0 -28 c0 -26 4 -29 55 -40 30 -7 55 -13 55 -14 -1 -17 -34 -106 -54 -145 l-26 -52 -109 0 -109 0 -31 74 c-42 102 -41 123 7 132 55 10 74 22 70 47 -3 21 -7 22 -128 23 -69 0 -142 3 -162 7 l-38 8 0 -35z m470 -338 c-1 -32 -68 -188 -80 -188 -10 0 -58 112 -65 153 l-7 37 76 0 c42 0 76 -1 76 -2z"/>
 <path d="M920 12513 c0 -27 4 -33 20 -33 11 0 36 -6 54 -14 49 -21 56 -64 59 -386 l2 -275 -50 -10 c-48 -11 -50 -12 -53 -49 l-3 -38 143 7 c125 6 146 10 166 28 12 11 22 26 22 33 0 6 16 47 36 90 20 44 45 99 57 124 89 196 121 260 129 260 5 0 8 -6 8 -14 0 -8 12 -39 28 -69 31 -62 68 -144 107 -237 15 -36 42 -98 61 -137 l34 -73 82 0 c46 0 113 -3 151 -7 l67 -6 0 36 c0 34 -2 35 -50 47 -60 14 -82 33 -75 63 2 12 9 123 15 247 5 124 13 254 16 290 l6 66 51 14 c48 14 52 18 55 48 l3 33 -73 -8 c-40 -4 -137 -7 -215 -6 l-143 3 0 -29 c0 -24 6 -30 39 -39 21 -7 45 -12 54 -12 9 0 19 -9 22 -21 8 -25 -4 -405 -15 -452 l-7 -32 -25 55 c-15 30 -41 89 -58 130 -18 41 -43 98 -55 125 -41 87 -58 128 -84 205 -26 74 -27 75 -63 78 -34 3 -37 1 -43 -30 -8 -32 -29 -84 -85 -203 -16 -33 -43 -91 -60 -130 -17 -38 -45 -97 -61 -129 -16 -32 -29 -64 -29 -71 0 -7 -6 -18 -14 -24 -11 -9 -14 27 -18 216 -7 269 -5 274 72 293 47 11 50 14 50 44 l0 33 -165 -1 -165 -1 0 -32z"/>
 <path d="M2082 12515 c2 -21 9 -31 23 -33 11 -1 44 -7 73 -13 l52 -10 0 -292 c0 -161 -3 -309 -6 -329 -7 -39 -6 -39 -101 -53 -35 -6 -43 -11 -43 -28 0 -43 11 -48 91 -38 41 5 190 6 334 3 143 -4 286 -6 318 -4 71 5 77 15 77 138 l0 85 -37 -3 c-33 -3 -39 -8 -65 -58 -17 -30 -35 -61 -42 -68 -8 -8 -64 -14 -174 -19 l-162 -6 0 148 0 147 116 -4 c128 -4 144 -11 144 -72 0 -44 13 -58 46 -54 l29 3 3 168 2 167 -34 0 c-34 0 -35 0 -42 -56 -6 -52 -9 -57 -40 -70 -35 -15 -122 -18 -186 -8 l-38 7 0 136 c0 75 4 141 8 147 10 17 165 26 254 16 92 -11 124 -32 165 -109 26 -49 31 -53 66 -53 20 0 37 3 37 8 0 4 -9 43 -19 87 -10 44 -21 96 -25 116 l-6 36 -411 -1 -410 -1 3 -30z"/>
 <path d="M4230 12519 c0 -34 16 -47 70 -55 83 -12 80 1 80 -334 0 -217 -3 -299 -12 -308 -7 -7 -42 -12 -86 -12 -83 0 -140 23 -163 66 -20 39 -57 58 -85 45 -29 -13 -29 -17 -3 -83 12 -29 27 -75 34 -103 10 -46 14 -50 43 -53 24 -2 34 2 48 22 l16 26 309 0 309 0 10 -25 c8 -20 16 -25 45 -25 l36 0 -3 133 -3 132 -34 0 c-30 0 -35 -4 -49 -40 -8 -22 -24 -52 -34 -67 -19 -27 -23 -28 -104 -28 l-84 0 2 322 3 322 40 8 c86 17 85 16 85 51 l0 33 -235 0 -235 -1 0 -26z"/>
 <path d="M6220 12521 c0 -24 7 -29 63 -46 58 -19 63 -23 75 -60 7 -22 19 -53 26 -70 8 -16 24 -57 36 -90 12 -33 32 -87 45 -121 12 -33 29 -76 38 -94 10 -18 17 -38 17 -44 0 -10 14 -47 91 -241 l27 -70 46 -3 c37 -3 47 0 52 15 10 28 92 219 148 346 14 32 26 63 26 69 0 6 13 41 29 77 16 36 41 98 56 136 44 112 58 135 85 141 45 9 70 23 72 39 0 8 1 21 2 28 1 9 -50 12 -221 13 l-223 1 0 -27 c0 -24 6 -28 61 -44 51 -14 60 -19 54 -34 -4 -9 -12 -30 -18 -47 -6 -16 -22 -56 -35 -87 l-26 -58 -111 0 -112 0 -23 53 c-12 28 -28 74 -35 102 -15 57 -13 61 53 71 39 6 42 8 42 39 l0 32 -170 0 -170 0 0 -26z m485 -373 c-3 -13 -9 -34 -12 -47 -3 -12 -18 -48 -33 -80 l-28 -56 -26 58 c-14 32 -26 66 -26 77 0 10 -4 22 -10 25 -5 3 -10 15 -10 26 0 17 7 19 76 19 75 0 76 -1 69 -22z"/>
 <path d="M8576 11361 c-16 -18 -18 -46 -18 -261 l-1 -242 25 -24 c23 -23 36 -26 159 -35 74 -6 188 -20 254 -31 66 -11 143 -24 170 -28 28 -4 85 -19 128 -34 42 -14 82 -26 87 -26 5 0 33 -11 62 -24 29 -13 58 -26 65 -28 19 -5 142 -112 142 -124 1 -5 10 -20 22 -32 27 -29 59 -147 59 -216 0 -71 -36 -307 -56 -371 -9 -27 -22 -72 -29 -100 -17 -65 -61 -188 -87 -245 -11 -25 -27 -63 -34 -84 -8 -22 -18 -44 -23 -50 -5 -6 -14 -29 -21 -51 -7 -21 -24 -60 -36 -86 -13 -26 -24 -51 -24 -55 0 -5 -11 -31 -24 -59 -13 -27 -38 -84 -56 -125 -18 -41 -43 -98 -56 -126 -13 -28 -24 -54 -24 -59 0 -4 -13 -35 -29 -69 -15 -33 -45 -99 -65 -146 -21 -47 -43 -98 -51 -115 -7 -16 -30 -68 -50 -115 -21 -47 -48 -109 -61 -138 -13 -29 -24 -56 -24 -60 0 -4 -13 -34 -29 -67 -16 -33 -43 -94 -61 -135 -18 -41 -43 -97 -55 -125 -13 -27 -39 -88 -59 -135 -21 -47 -43 -98 -51 -115 -7 -16 -30 -68 -50 -115 -21 -47 -48 -109 -61 -138 -13 -29 -24 -56 -24 -60 0 -4 -13 -34 -29 -67 -16 -33 -42 -91 -59 -130 -17 -38 -42 -96 -56 -128 -14 -32 -26 -61 -26 -65 0 -4 -12 -31 -27 -60 -36 -71 -27 -94 57 -149 36 -23 70 -46 75 -51 9 -7 84 -57 146 -97 9 -5 29 -19 45 -29 16 -11 81 -53 144 -95 63 -42 121 -81 128 -88 7 -7 17 -13 22 -13 5 0 45 -25 89 -55 44 -30 83 -55 86 -55 4 0 21 -11 39 -25 18 -14 37 -25 42 -25 5 0 25 -14 44 -30 19 -16 39 -30 44 -30 5 0 23 -10 40 -23 17 -12 42 -28 56 -35 14 -7 52 -31 85 -52 33 -22 71 -46 85 -52 14 -7 27 -15 30 -19 3 -3 28 -19 55 -34 28 -16 52 -32 55 -36 12 -15 51 -29 82 -29 37 0 40 5 113 170 20 47 43 99 50 115 8 17 30 68 51 115 20 47 49 112 64 145 16 33 42 94 60 135 35 81 66 150 105 233 14 29 25 57 25 62 0 6 14 39 31 75 33 68 43 90 104 230 21 47 48 108 61 135 12 28 39 88 59 135 20 47 44 103 55 125 10 22 33 74 51 115 17 41 44 102 60 135 15 33 42 94 60 135 32 75 50 117 108 242 17 37 31 71 31 75 0 4 11 30 24 58 39 81 82 176 111 245 26 60 51 117 110 245 13 28 37 84 55 125 17 41 42 98 55 125 12 28 37 84 55 125 36 82 73 164 114 251 14 31 26 59 26 63 0 4 14 38 31 74 57 121 77 166 119 260 49 113 152 324 182 372 49 80 88 137 102 149 9 8 16 17 16 21 0 5 32 39 71 77 122 117 109 106 178 148 18 11 52 32 75 47 22 15 48 28 56 28 8 0 29 8 45 18 93 56 432 135 655 153 123 10 148 15 163 32 15 17 17 45 17 267 0 226 -2 248 -18 263 -17 16 -191 17 -2299 17 -2243 0 -2280 0 -2297 -19z"/>
 <path d="M7718 5300 c-9 -6 -28 -34 -41 -63 -31 -67 -93 -206 -122 -277 -13 -30 -38 -85 -54 -123 -17 -37 -31 -70 -31 -74 0 -4 -11 -30 -24 -58 -70 -148 -86 -183 -86 -191 0 -5 -11 -31 -24 -59 -14 -27 -39 -84 -56 -125 -18 -41 -45 -103 -61 -136 -16 -34 -29 -65 -29 -68 0 -7 -23 -58 -81 -183 -16 -34 -29 -64 -29 -68 0 -7 -22 -56 -86 -191 -13 -28 -24 -54 -24 -57 0 -4 -14 -37 -31 -74 -16 -38 -42 -95 -56 -128 -14 -33 -38 -87 -54 -120 -15 -33 -41 -94 -59 -135 -17 -41 -40 -93 -50 -115 -11 -22 -31 -68 -46 -102 -26 -62 -44 -80 -44 -46 0 10 -11 40 -24 68 -13 27 -38 86 -56 130 -17 44 -42 105 -55 135 -13 30 -31 76 -41 103 -24 68 -69 75 -141 21 -17 -13 -36 -24 -41 -24 -5 0 -15 -7 -22 -15 -6 -7 -37 -29 -67 -47 -31 -18 -66 -40 -78 -48 -12 -8 -46 -30 -76 -48 -30 -18 -81 -51 -114 -73 -33 -21 -72 -44 -87 -50 -16 -6 -28 -14 -28 -18 0 -4 -24 -21 -52 -36 -29 -16 -59 -35 -66 -42 -7 -7 -20 -13 -27 -13 -46 0 -43 -110 5 -208 16 -34 30 -67 30 -72 0 -9 14 -41 81 -188 16 -34 29 -67 29 -73 0 -6 11 -33 25 -61 14 -27 25 -55 25 -61 0 -7 14 -39 30 -71 17 -32 30 -64 30 -71 0 -6 14 -39 30 -73 17 -34 30 -67 30 -72 0 -9 14 -41 81 -188 16 -34 29 -67 29 -73 0 -6 11 -33 25 -61 14 -27 25 -55 25 -61 0 -7 14 -39 30 -71 17 -32 30 -64 30 -71 0 -7 6 -25 14 -41 19 -36 73 -166 93 -219 8 -22 25 -62 39 -88 13 -27 24 -54 24 -60 0 -7 11 -34 25 -62 13 -27 25 -55 25 -61 0 -7 14 -39 30 -72 17 -34 30 -66 30 -71 0 -6 11 -34 24 -63 50 -111 85 -195 102 -241 9 -26 21 -50 25 -53 5 -3 9 -12 9 -21 0 -16 33 -96 91 -221 16 -34 29 -67 29 -73 0 -17 50 -113 63 -121 7 -4 114 -8 239 -8 l227 0 29 31 c16 17 46 70 66 117 21 48 51 115 67 149 16 35 29 66 29 70 0 5 13 35 29 68 16 33 43 94 61 135 18 41 42 98 55 125 12 28 35 79 50 115 15 36 38 88 50 115 13 28 37 84 55 125 18 41 45 102 61 135 16 33 29 65 29 70 0 6 13 37 29 70 16 33 43 94 61 135 18 41 42 98 55 125 13 28 35 79 50 115 15 36 40 92 55 125 15 33 42 94 60 135 17 41 43 97 56 123 13 27 24 53 24 59 0 6 16 45 36 87 20 42 42 90 49 106 60 137 91 207 111 250 13 28 24 55 24 60 0 6 13 37 29 70 16 33 43 94 61 135 35 83 62 142 109 241 17 36 31 69 31 73 0 4 11 31 24 59 13 29 38 86 56 127 68 154 83 186 111 246 16 34 29 65 29 70 0 5 11 31 24 59 14 27 39 84 57 125 30 71 67 153 110 245 10 22 25 60 34 84 8 24 19 49 24 55 16 20 71 167 71 190 0 27 -39 65 -97 94 -66 33 -82 41 -105 54 -13 7 -45 24 -73 39 -48 25 -116 62 -220 120 -27 15 -72 39 -100 54 -27 15 -57 33 -66 41 -8 8 -22 14 -29 14 -7 0 -21 6 -29 14 -9 7 -38 26 -66 41 -78 44 -145 83 -205 120 -30 19 -65 39 -78 45 -13 5 -38 21 -56 35 -18 14 -37 25 -41 25 -4 0 -23 11 -41 25 -18 14 -36 25 -39 25 -4 0 -26 14 -50 30 -24 17 -48 30 -53 30 -5 0 -16 7 -23 17 -14 16 -106 63 -124 63 -5 -1 -18 -5 -27 -10z"/>
 </g>

</svg>