<svg xmlns="http://www.w3.org/2000/svg" viewBox="0 0 600 340" width="600" height="340">
  <defs>
    <linearGradient id="bg5" x1="0" y1="0" x2="1" y2="1">
      <stop offset="0%" stop-color="#e8ecf4"/>
      <stop offset="100%" stop-color="#d5dce8"/>
    </linearGradient>
  </defs>
  <rect width="600" height="340" fill="url(#bg5)"/>
  <!-- Building -->
  <rect x="240" y="80" width="120" height="150" rx="3" fill="none" stroke="#0f1d40" stroke-width="2.5" opacity=".45"/>
  <!-- Building windows grid -->
  <rect x="257" y="100" width="18" height="18" rx="2" fill="#0f1d40" opacity=".1"/>
  <rect x="291" y="100" width="18" height="18" rx="2" fill="#0f1d40" opacity=".1"/>
  <rect x="325" y="100" width="18" height="18" rx="2" fill="#0f1d40" opacity=".1"/>
  <rect x="257" y="130" width="18" height="18" rx="2" fill="#0f1d40" opacity=".1"/>
  <rect x="291" y="130" width="18" height="18" rx="2" fill="#0f1d40" opacity=".1"/>
  <rect x="325" y="130" width="18" height="18" rx="2" fill="#0f1d40" opacity=".1"/>
  <rect x="257" y="160" width="18" height="18" rx="2" fill="#0f1d40" opacity=".1"/>
  <rect x="291" y="160" width="18" height="18" rx="2" fill="#0f1d40" opacity=".1"/>
  <rect x="325" y="160" width="18" height="18" rx="2" fill="#0f1d40" opacity=".1"/>
  <!-- Door -->
  <rect x="285" y="200" width="30" height="30" rx="2" fill="#0f1d40" opacity=".15"/>
  <!-- Ground line -->
  <line x1="200" y1="230" x2="400" y2="230" stroke="#0f1d40" stroke-width="2" opacity=".2"/>
  <!-- Magnifying glass (search/review) -->
  <g transform="translate(300,280)" opacity=".4">
    <circle cx="0" cy="0" r="16" fill="none" stroke="#0f1d40" stroke-width="2.5"/>
    <line x1="11" y1="11" x2="26" y2="26" stroke="#0f1d40" stroke-width="3" stroke-linecap="round"/>
  </g>
</svg>
